<svg width="32" height="32" viewBox="0 0 32 32" fill="none" xmlns="http://www.w3.org/2000/svg">
<g clip-path="url(#clip0_35_556)">
<path fill-rule="evenodd" clip-rule="evenodd" d="M31.5616 8.74082C31.5616 8.42521 31.5573 8.10521 31.5485 7.78959C31.531 7.09699 31.4871 6.4 31.3644 5.71616C31.2416 5.02356 31.0356 4.37479 30.7156 3.74356C30.4 3.12548 29.9879 2.55562 29.497 2.06466C29.006 1.5737 28.4362 1.16164 27.8181 0.846027C27.1868 0.526027 26.5425 0.32 25.8499 0.19726C25.166 0.0745205 24.469 0.0350685 23.7764 0.0131507C23.4564 0.00876712 23.1364 0.00438356 22.8208 0C22.4438 0 22.0668 0 21.6899 0H9.87178C9.49479 0 9.11781 0 8.74082 0C8.42521 0 8.10521 0.00438356 7.78959 0.0131507C7.09699 0.0306849 6.4 0.0745205 5.71616 0.19726C5.02356 0.324384 4.37479 0.526027 3.74795 0.850411C3.12548 1.16603 2.56 1.57808 2.06904 2.06904C1.57808 2.56 1.16164 3.12548 0.846027 3.74795C0.526027 4.37918 0.32 5.02356 0.19726 5.72055C0.0745205 6.40438 0.0350685 7.10137 0.0131507 7.79397C0.00876712 8.10959 0.00438356 8.42521 0 8.74521C0 9.12219 0 9.49918 0 9.87616V21.6942C0 22.0712 0 22.4482 0 22.8252C0 23.1408 0.00438356 23.4608 0.0131507 23.7764C0.0306849 24.469 0.0745205 25.166 0.19726 25.8499C0.32 26.5425 0.526027 27.1912 0.846027 27.8225C1.16164 28.4405 1.5737 29.0104 2.06466 29.5014C2.55562 29.9923 3.12548 30.4044 3.74356 30.72C4.37479 31.04 5.01918 31.246 5.71178 31.3688C6.39562 31.4915 7.0926 31.531 7.78521 31.5529C8.10082 31.5616 8.42082 31.566 8.73644 31.566C9.11342 31.5704 9.49041 31.566 9.8674 31.566H21.6811C22.0581 31.566 22.4351 31.566 22.8121 31.566C23.1277 31.566 23.4477 31.5616 23.7633 31.5529C24.4559 31.5353 25.1529 31.4915 25.8367 31.3688C26.5293 31.246 27.1781 31.04 27.8049 30.72C28.423 30.4044 28.9929 29.9923 29.4838 29.5014C29.9748 29.0104 30.3868 28.4449 30.7025 27.8225C31.0225 27.1912 31.2285 26.5468 31.3512 25.8499C31.474 25.166 31.5134 24.469 31.5353 23.7764C31.5441 23.4608 31.5485 23.1408 31.5485 22.8252C31.5529 22.4482 31.5485 22.0712 31.5485 21.6942V9.87178C31.5616 9.49479 31.5616 9.11781 31.5616 8.74082ZM23.1058 20.537C23.1058 20.9359 23.1014 21.2997 23.0181 21.6986C22.9348 22.0888 22.7858 22.4526 22.5578 22.7814C22.3299 23.1101 22.0362 23.3775 21.6942 23.5792C21.3479 23.7852 20.9841 23.8992 20.5984 23.9781C19.8707 24.1227 19.3753 24.1578 18.9063 24.0658C18.4548 23.9737 18.0734 23.7677 17.7666 23.4871C17.3151 23.0707 17.0301 22.5096 16.9688 21.9266C16.8986 21.2384 17.1266 20.5063 17.6395 19.9627C17.8981 19.691 18.2268 19.4762 18.6652 19.3052C19.1211 19.1299 19.6252 19.0203 20.4011 18.8668C20.6071 18.8274 20.8088 18.7836 21.0148 18.7441C21.2822 18.6915 21.5145 18.6214 21.6986 18.3934C21.8871 18.1655 21.8871 17.8849 21.8871 17.6132V10.6608C21.8871 10.1304 21.6504 9.98575 21.1419 10.0822C20.7781 10.1523 12.9797 11.726 12.9797 11.726C12.5414 11.8312 12.3836 11.9759 12.3836 12.5238V22.7068C12.3836 23.1058 12.3616 23.4696 12.2784 23.8685C12.1951 24.2586 12.046 24.6225 11.8181 24.9512C11.5901 25.28 11.2964 25.5474 10.9545 25.749C10.6082 25.9551 10.2444 26.0734 9.85863 26.1523C9.13096 26.297 8.63562 26.3321 8.16657 26.24C7.71507 26.1479 7.3337 25.9375 7.02685 25.657C6.57534 25.2405 6.31233 24.6795 6.24658 24.0964C6.17644 23.4082 6.38247 22.6762 6.89973 22.1326C7.15836 21.8608 7.48712 21.646 7.92548 21.4751C8.38137 21.2997 8.88548 21.1901 9.66137 21.0367C9.8674 20.9973 10.069 20.9534 10.2751 20.914C10.5425 20.8614 10.7748 20.7912 10.9589 20.5633C11.143 20.3353 11.1649 20.0679 11.1649 19.7962C11.1649 17.6395 11.1649 8.0526 11.1649 8.0526C11.1649 7.89479 11.1781 7.78959 11.1868 7.73699C11.2263 7.49151 11.3227 7.27671 11.5025 7.12767C11.6515 7.00493 11.8444 6.91726 12.0855 6.86466H12.0899L21.4795 4.96658C21.5627 4.94904 22.2378 4.83068 22.3167 4.82192C22.8252 4.77808 23.1101 5.11123 23.1101 5.65041L23.1058 20.537Z" fill="white"/>
</g>
<defs>
<clipPath id="clip0_35_556">
<rect width="32" height="32" fill="white"/>
</clipPath>
</defs>
</svg>
