<svg width="32" height="15" viewBox="0 0 32 15" fill="none" xmlns="http://www.w3.org/2000/svg">
<g clip-path="url(#clip0_35_594)">
<path d="M32.0001 10.0693C31.9352 11.223 31.4272 12.307 30.582 13.0949C29.7369 13.8828 28.62 14.3137 27.4646 14.2976H16.5633C16.3233 14.2954 16.0939 14.1988 15.9246 14.0287C15.7554 13.8586 15.6598 13.6288 15.6587 13.3888V1.65121C15.6508 1.44979 15.704 1.25069 15.8114 1.08011C15.9188 0.909518 16.0753 0.775427 16.2603 0.695472C16.2603 0.695472 17.263 5.13956e-06 19.375 5.13956e-06C20.6652 -0.00154242 21.9317 0.346424 23.0401 1.00694C23.9051 1.51589 24.6552 2.19884 25.2427 3.01257C25.8302 3.82631 26.2425 4.75313 26.4534 5.7344C26.8295 5.62799 27.2188 5.57485 27.6097 5.57654C28.1959 5.57285 28.777 5.68731 29.318 5.91309C29.8591 6.13886 30.3491 6.47133 30.7589 6.89065C31.1687 7.30997 31.4897 7.80754 31.703 8.35368C31.9162 8.89981 32.0173 9.4833 32.0001 10.0693Z" fill="white"/>
<path d="M14.2977 2.39362C14.3031 2.34414 14.2981 2.29406 14.2829 2.24666C14.2677 2.19926 14.2427 2.15559 14.2094 2.11852C14.1762 2.08144 14.1356 2.05178 14.0901 2.03147C14.0447 2.01117 13.9954 2.00067 13.9457 2.00067C13.8959 2.00067 13.8467 2.01117 13.8012 2.03147C13.7558 2.05178 13.7151 2.08144 13.6819 2.11852C13.6487 2.15559 13.6236 2.19926 13.6084 2.24666C13.5932 2.29406 13.5882 2.34414 13.5937 2.39362C13.295 6.34028 13.0646 10.0395 13.5937 13.9734C13.6032 14.06 13.6444 14.1401 13.7094 14.1983C13.7743 14.2565 13.8585 14.2887 13.9457 14.2887C14.0329 14.2887 14.117 14.2565 14.182 14.1983C14.2469 14.1401 14.2881 14.06 14.2977 13.9734C14.8651 10.0054 14.6262 6.37442 14.2977 2.39362Z" fill="white"/>
<path d="M12.096 3.75895C12.0862 3.66791 12.0431 3.5837 11.975 3.52252C11.9069 3.46134 11.8185 3.42749 11.727 3.42749C11.6354 3.42749 11.547 3.46134 11.4789 3.52252C11.4108 3.5837 11.3677 3.66791 11.3579 3.75895C10.9632 7.15374 10.9632 10.5828 11.3579 13.9776C11.3713 14.0653 11.4157 14.1453 11.483 14.2031C11.5503 14.2609 11.6361 14.2927 11.7248 14.2927C11.8135 14.2927 11.8993 14.2609 11.9666 14.2031C12.034 14.1453 12.0783 14.0653 12.0918 13.9776C12.5326 10.5858 12.5341 7.15118 12.096 3.75895Z" fill="white"/>
<path d="M9.88162 3.41335C9.872 3.32558 9.83033 3.24445 9.76458 3.18552C9.69884 3.12659 9.61365 3.09399 9.52536 3.09399C9.43706 3.09399 9.35188 3.12659 9.28613 3.18552C9.22039 3.24445 9.17871 3.32558 9.16909 3.41335C8.83202 7.01441 8.66136 10.3765 9.16909 13.9691C9.16909 14.063 9.2064 14.1531 9.27281 14.2195C9.33923 14.2859 9.4293 14.3232 9.52322 14.3232C9.61715 14.3232 9.70722 14.2859 9.77363 14.2195C9.84005 14.1531 9.87736 14.063 9.87736 13.9691C10.4022 10.3296 10.24 7.06135 9.88162 3.41335Z" fill="white"/>
<path d="M7.67998 4.44158C7.67998 4.34426 7.64132 4.25093 7.57251 4.18212C7.50369 4.1133 7.41036 4.07465 7.31305 4.07465C7.21573 4.07465 7.1224 4.1133 7.05359 4.18212C6.98477 4.25093 6.94611 4.34426 6.94611 4.44158C6.53863 7.60861 6.53863 10.8148 6.94611 13.9818C6.95579 14.0707 6.99795 14.1529 7.06449 14.2125C7.13103 14.2722 7.21726 14.3052 7.30665 14.3052C7.39603 14.3052 7.48227 14.2722 7.54881 14.2125C7.61534 14.1529 7.6575 14.0707 7.66718 13.9818C8.10876 10.8174 8.11307 7.60722 7.67998 4.44158Z" fill="white"/>
<path d="M5.45712 6.82666C5.45712 6.73047 5.41891 6.63823 5.3509 6.57021C5.28288 6.5022 5.19064 6.46399 5.09445 6.46399C4.99827 6.46399 4.90602 6.5022 4.83801 6.57021C4.76999 6.63823 4.73179 6.73047 4.73179 6.82666C4.20699 9.28426 4.45445 11.52 4.75312 14.0075C4.76601 14.0887 4.80746 14.1627 4.87003 14.2161C4.9326 14.2696 5.01218 14.2989 5.09445 14.2989C5.17673 14.2989 5.2563 14.2696 5.31887 14.2161C5.38144 14.1627 5.4229 14.0887 5.43579 14.0075C5.76432 11.4859 6.01605 9.30132 5.45712 6.82666Z" fill="white"/>
<path d="M3.25116 6.45122C3.2413 6.35909 3.19772 6.27386 3.1288 6.21192C3.05988 6.14999 2.97049 6.11572 2.87783 6.11572C2.78517 6.11572 2.69578 6.14999 2.62686 6.21192C2.55794 6.27386 2.51436 6.35909 2.5045 6.45122C2.03943 8.96002 2.19303 11.1702 2.5173 13.6747C2.55143 14.0544 3.1957 14.0502 3.23836 13.6747C3.59676 11.1318 3.76316 8.98562 3.25116 6.45122Z" fill="white"/>
<path d="M1.02401 7.67998C1.01414 7.58785 0.970559 7.50262 0.901639 7.44068C0.83272 7.37875 0.743332 7.34448 0.650673 7.34448C0.558013 7.34448 0.468625 7.37875 0.399706 7.44068C0.330786 7.50262 0.287203 7.58785 0.277339 7.67998C-0.149327 9.36531 -0.0170607 10.7605 0.307206 12.4501C0.316701 12.5357 0.357425 12.6148 0.421584 12.6722C0.485742 12.7296 0.568828 12.7614 0.654939 12.7614C0.74105 12.7614 0.824136 12.7296 0.888295 12.6722C0.952454 12.6148 0.993178 12.5357 1.00267 12.4501C1.37814 10.7264 1.56161 9.36105 1.02401 7.67998Z" fill="white"/>
</g>
<defs>
<clipPath id="clip0_35_594">
<rect width="32" height="14.2976" fill="white"/>
</clipPath>
</defs>
</svg>
