<svg width="32" height="32" viewBox="0 0 32 32" fill="none" xmlns="http://www.w3.org/2000/svg">
<g clip-path="url(#clip0_35_550)">
<path d="M16.6347 0.0128653C7.80465 -0.338115 0.362381 6.53523 0.0128627 15.3653C-0.338118 24.1954 6.53672 31.6361 15.3654 31.9872C24.1955 32.3381 31.6363 25.4648 31.9873 16.6347C32.3368 7.80459 25.4634 0.362383 16.6347 0.0128653ZM23.3882 23.451C23.1893 23.802 22.8018 23.9775 22.4245 23.9249C22.309 23.9088 22.1934 23.8707 22.0852 23.8093C19.9705 22.6057 17.6658 21.8219 15.2352 21.4797C12.8046 21.1374 10.3726 21.2559 8.0079 21.8307C7.49461 21.9549 6.97837 21.6405 6.85409 21.1272C6.72975 20.6139 7.04418 20.0977 7.55747 19.9734C10.1577 19.3416 12.831 19.2115 15.5014 19.5873C18.1718 19.9632 20.7047 20.8245 23.0314 22.148C23.4891 22.4098 23.65 22.9918 23.3897 23.451H23.3882ZM25.4911 19.2509C25.1651 19.8535 24.4104 20.0787 23.8079 19.7526C21.3335 18.4145 18.6543 17.5355 15.8451 17.1407C13.0357 16.7458 10.2191 16.8526 7.47123 17.4566C7.32206 17.4887 7.17435 17.4946 7.03102 17.4741C6.53234 17.4039 6.10529 17.0325 5.99123 16.5104C5.84356 15.8406 6.26761 15.1781 6.93745 15.0304C9.97486 14.3621 13.0884 14.2436 16.1916 14.6794C19.2934 15.1153 22.2548 16.0863 24.9896 17.5662C25.5935 17.8924 25.8173 18.6455 25.4911 19.2495V19.2509ZM27.8222 14.5171C27.5151 15.1079 26.8761 15.4136 26.2531 15.3258C26.0849 15.3025 25.9196 15.2498 25.7603 15.1679C22.8793 13.6689 19.776 12.6789 16.5368 12.2241C13.2975 11.7692 10.0407 11.8658 6.85848 12.5122C6.03071 12.6803 5.22493 12.1451 5.05675 11.3188C4.88857 10.4911 5.42384 9.68527 6.25006 9.51711C9.7745 8.80196 13.3779 8.69523 16.9623 9.1983C20.5467 9.70137 23.9805 10.7982 27.1715 12.458C27.9203 12.847 28.2113 13.7698 27.8222 14.5186V14.5171Z" fill="white"/>
</g>
<defs>
<clipPath id="clip0_35_550">
<rect width="32" height="32" fill="white"/>
</clipPath>
</defs>
</svg>
