<svg width="32" height="32" viewBox="0 0 32 32" fill="none" xmlns="http://www.w3.org/2000/svg">
<g clip-path="url(#clip0_41_613)">
<mask id="mask0_41_613" style="mask-type:luminance" maskUnits="userSpaceOnUse" x="0" y="0" width="32" height="32">
<path d="M32 0H0V32H32V0Z" fill="white"/>
</mask>
<g mask="url(#mask0_41_613)">
<path d="M16 2.66669C8.63996 2.66669 2.66663 8.64002 2.66663 16C2.66663 23.36 8.63996 29.3334 16 29.3334C23.36 29.3334 29.3333 23.36 29.3333 16C29.3333 8.64002 23.36 2.66669 16 2.66669ZM16 23.8934C11.64 23.8934 8.10663 20.36 8.10663 16C8.10663 11.64 11.64 8.10669 16 8.10669C20.36 8.10669 23.8933 11.64 23.8933 16C23.8933 20.36 20.36 23.8934 16 23.8934Z" fill="white"/>
<path d="M16 9.08002C12.1866 9.08002 9.07996 12.1867 9.07996 16C9.07996 19.8133 12.1866 22.92 16 22.92C19.8133 22.92 22.92 19.8133 22.92 16C22.92 12.1867 19.8133 9.08002 16 9.08002ZM13.4266 19.9333V12.0667L20.24 16L13.4266 19.9333Z" fill="white"/>
</g>
</g>
<defs>
<clipPath id="clip0_41_613">
<rect width="32" height="32" fill="white"/>
</clipPath>
</defs>
</svg>
