<svg width="32" height="23" viewBox="0 0 32 23" fill="none" xmlns="http://www.w3.org/2000/svg">
<g clip-path="url(#clip0_35_563)">
<path d="M15.9997 0C15.9997 0 5.98396 5.14955e-05 3.47983 0.659032C2.13551 1.02806 1.02806 2.13541 0.659033 3.50609C5.14955e-05 6.01022 0 11.2027 0 11.2027C0 11.2027 5.14955e-05 16.4215 0.659033 18.8993C1.02806 20.2699 2.10915 21.351 3.47983 21.7201C6.01032 22.4054 15.9997 22.4054 15.9997 22.4054C15.9997 22.4054 26.0163 22.4053 28.5204 21.7463C29.8911 21.3773 30.9722 20.2962 31.3412 18.9255C32.0002 16.4214 32.0003 11.2289 32.0003 11.2289C32.0003 11.2289 32.0266 6.01022 31.3412 3.50609C30.9722 2.13541 29.8911 1.05432 28.5204 0.685289C26.0163 -5.14955e-05 15.9997 0 15.9997 0ZM12.8104 6.40566L21.1398 11.2027L12.8104 15.9997V6.40566Z" fill="white"/>
</g>
<defs>
<clipPath id="clip0_35_563">
<rect width="32" height="22.4052" fill="white"/>
</clipPath>
</defs>
</svg>
